<svg width="168" height="40" viewBox="0 0 168 40" fill="none" xmlns="http://www.w3.org/2000/svg">
<path d="M0.787621 8.07703C0.54269 8.20456 0.240752 8.10939 0.113225 7.86446C-0.0143025 7.61952 0.0808723 7.31759 0.325804 7.19006L0.787621 8.07703ZM61.5208 5.63353L61.4144 6.12207L61.3862 6.11593L61.3589 6.10658L61.5208 5.63353ZM167.555 38.292C167.579 38.5671 167.376 38.8098 167.101 38.834L162.618 39.2292C162.343 39.2535 162.1 39.0501 162.076 38.7751C162.052 38.5 162.255 38.2573 162.53 38.2331L166.515 37.8818L166.163 33.8972C166.139 33.6222 166.342 33.3795 166.618 33.3553C166.893 33.331 167.135 33.5343 167.159 33.8094L167.555 38.292ZM0.325804 7.19006C13.7004 0.226374 29.0552 -0.26712 41.0273 0.962049C47.0192 1.57723 52.1783 2.62544 55.8404 3.52003C57.6717 3.96739 59.1295 4.37654 60.1307 4.67429C60.6313 4.82318 61.0179 4.94422 61.28 5.0283C61.4111 5.07033 61.511 5.10313 61.5786 5.12554C61.6123 5.13674 61.638 5.14535 61.6554 5.15123C61.6641 5.15416 61.6708 5.15641 61.6753 5.15796C61.6776 5.15873 61.6794 5.15933 61.6806 5.15975C61.6812 5.15996 61.6818 5.16014 61.6821 5.16025C61.6825 5.16039 61.6827 5.16048 61.5208 5.63353C61.3589 6.10658 61.3589 6.10658 61.3587 6.10654C61.3585 6.10647 61.3583 6.10638 61.3578 6.10623C61.357 6.10594 61.3556 6.10546 61.3537 6.10482C61.3499 6.10352 61.344 6.10152 61.336 6.09884C61.3201 6.09347 61.2959 6.08537 61.2637 6.07468C61.1992 6.05328 61.1024 6.02152 60.9746 5.98051C60.7189 5.89851 60.3391 5.77957 59.8456 5.63281C58.8586 5.33927 57.4168 4.93453 55.6031 4.49146C51.9749 3.60517 46.8618 2.56634 40.9252 1.95682C29.0402 0.736596 13.913 1.24311 0.787621 8.07703L0.325804 7.19006ZM61.6272 5.14499C67.1764 6.35378 74.5957 9.08849 80.4284 12.665C83.3437 14.4527 85.8911 16.4678 87.607 18.6318C89.324 20.7972 90.2454 23.1624 89.7872 25.6118L88.8043 25.4279C89.1902 23.3651 88.437 21.288 86.8235 19.2531C85.2088 17.2169 82.7698 15.2738 79.9056 13.5175C74.1792 10.0061 66.8669 7.3098 61.4144 6.12207L61.6272 5.14499ZM89.7872 25.6118C89.2441 28.5151 88.0766 30.4389 86.5829 31.5041C85.0827 32.5739 83.3207 32.7284 81.7097 32.2199C78.5112 31.2102 75.8587 27.5817 76.6857 23.1608L77.6687 23.3447C76.9359 27.2615 79.2876 30.4067 82.0107 31.2663C83.3606 31.6923 84.7888 31.5553 86.0023 30.6899C87.2224 29.8198 88.2923 28.1648 88.8043 25.4279L89.7872 25.6118ZM76.6857 23.1608C77.107 20.9088 78.5684 19.065 80.632 17.6086C82.694 16.1533 85.3903 15.0592 88.368 14.3034C94.3222 12.792 101.511 12.606 107.292 13.6873L107.108 14.6703C101.468 13.6153 94.4261 13.7974 88.614 15.2727C85.7084 16.0102 83.1378 17.0641 81.2086 18.4256C79.2812 19.786 78.0273 21.4279 77.6687 23.3447L76.6857 23.1608ZM107.292 13.6873C111.876 14.5449 122.365 16.8188 133.965 20.7688C145.557 24.7155 158.307 30.3515 167.378 37.9527L166.736 38.7192C157.807 31.2373 145.196 25.6492 133.643 21.7154C122.099 17.7848 111.659 15.5217 107.108 14.6703L107.292 13.6873Z" fill="white"/>
</svg>
