<svg width="168" height="40" viewBox="0 0 168 40" fill="none" xmlns="http://www.w3.org/2000/svg">
<path d="M1.17141 31.7589C0.926479 31.6314 0.624541 31.7266 0.497014 31.9715C0.369487 32.2164 0.464661 32.5184 0.709593 32.6459L1.17141 31.7589ZM61.9046 34.2024L61.7982 33.7139L61.77 33.72L61.7427 33.7294L61.9046 34.2024ZM167.939 1.54391C167.963 1.26884 167.759 1.02618 167.484 1.00193L163.002 0.606712C162.727 0.582461 162.484 0.785794 162.46 1.06087C162.436 1.33594 162.639 1.5786 162.914 1.60285L166.898 1.95416L166.547 5.9387C166.523 6.21377 166.726 6.45643 167.001 6.48068C167.276 6.50493 167.519 6.3016 167.543 6.02652L167.939 1.54391ZM0.709593 32.6459C14.0842 39.6096 29.439 40.1031 41.4111 38.8739C47.4029 38.2587 52.5621 37.2105 56.2242 36.3159C58.0555 35.8685 59.5132 35.4594 60.5145 35.1616C61.0151 35.0128 61.4017 34.8917 61.6638 34.8076C61.7948 34.7656 61.8948 34.7328 61.9623 34.7104C61.9961 34.6992 62.0218 34.6906 62.0392 34.6847C62.0479 34.6818 62.0546 34.6795 62.0591 34.678C62.0614 34.6772 62.0632 34.6766 62.0644 34.6762C62.065 34.676 62.0655 34.6758 62.0659 34.6757C62.0662 34.6756 62.0665 34.6755 61.9046 34.2024C61.7427 33.7294 61.7427 33.7294 61.7425 33.7294C61.7423 33.7295 61.7421 33.7296 61.7416 33.7297C61.7408 33.73 61.7394 33.7305 61.7375 33.7311C61.7337 33.7324 61.7278 33.7344 61.7198 33.7371C61.7039 33.7425 61.6797 33.7506 61.6475 33.7613C61.583 33.7827 61.4862 33.8144 61.3584 33.8554C61.1027 33.9374 60.7229 34.0564 60.2294 34.2031C59.2424 34.4967 57.8006 34.9014 55.9868 35.3445C52.3587 36.2308 47.2456 37.2696 41.309 37.8791C29.424 39.0993 14.2968 38.5928 1.17141 31.7589L0.709593 32.6459ZM62.011 34.691C67.5602 33.4822 74.9795 30.7475 80.8121 27.1709C83.7275 25.3832 86.2749 23.3681 87.9908 21.2041C89.7078 19.0388 90.6292 16.6736 90.171 14.2242L89.1881 14.4081C89.574 16.4708 88.8208 18.5479 87.2073 20.5828C85.5926 22.6191 83.1536 24.5622 80.2894 26.3184C74.563 29.8298 67.2507 32.5261 61.7982 33.7139L62.011 34.691ZM90.171 14.2242C89.6279 11.3209 88.4604 9.39701 86.9667 8.33186C85.4665 7.26203 83.7045 7.10754 82.0935 7.61606C78.895 8.6257 76.2425 12.2543 77.0695 16.6751L78.0525 16.4912C77.3197 12.5744 79.6714 9.42925 82.3945 8.56969C83.7443 8.14361 85.1726 8.28064 86.3861 9.14604C87.6062 10.0161 88.6761 11.6712 89.1881 14.4081L90.171 14.2242ZM77.0695 16.6751C77.4908 18.9271 78.9522 20.7709 81.0158 22.2274C83.0778 23.6826 85.7741 24.7767 88.7517 25.5325C94.706 27.0439 101.895 27.23 107.675 26.1486L107.492 25.1657C101.852 26.2206 94.8099 26.0386 88.9978 24.5633C86.0922 23.8258 83.5216 22.7719 81.5924 21.4103C79.665 20.05 78.411 18.4081 78.0525 16.4912L77.0695 16.6751ZM107.675 26.1486C112.26 25.291 122.748 23.0171 134.349 19.0672C145.94 15.1205 158.69 9.48449 167.762 1.88324L167.119 1.11676C158.191 8.59867 145.58 14.1868 134.027 18.1206C122.483 22.0511 112.043 24.3142 107.492 25.1657L107.675 26.1486Z" fill="white"/>
</svg>
